<?xml version="1.0" encoding="UTF-8"?>
<!DOCTYPE svg PUBLIC "-//W3C//DTD SVG 1.1//EN" "http://www.w3.org/Graphics/SVG/1.1/DTD/svg11.dtd">
<!-- Creator: CorelDRAW 2021 (64-Bit) -->
<svg xmlns="http://www.w3.org/2000/svg" xml:space="preserve" width="79.0312mm" height="79.2264mm" version="1.1" style="shape-rendering:geometricPrecision; text-rendering:geometricPrecision; image-rendering:optimizeQuality; fill-rule:evenodd; clip-rule:evenodd"
viewBox="0 0 203.14 203.64"
 xmlns:xlink="http://www.w3.org/1999/xlink"
 xmlns:xodm="http://www.corel.com/coreldraw/odm/2003">
 <defs>
  <style type="text/css">
   <![CDATA[
    .fil0 {fill:#FEFEFE}
   ]]>
  </style>
 </defs>
 <g id="Layer_x0020_1">
  <metadata id="CorelCorpID_0Corel-Layer"/>
  <path class="fil0" d="M92.33 92.39c12.75,2.55 37.04,35.4 21.47,67.39 -3.49,7.16 -9.01,15.43 -15.12,18.46 -26.07,-16.92 -32.75,-59.3 -6.35,-85.85zm-6.33 94.04c-37.66,12.54 -68.41,-9.97 -72.6,-43.84 -4.3,-34.74 29.14,-65.22 64.75,-56.35 -0.93,2.49 -7.45,9.19 -12.37,21.87 -8.94,23.03 -4.13,50.35 11.25,69.02 3.16,3.83 6.17,5.9 8.98,9.31zm18.72 -103.78c10.73,-3.12 14.68,-7.09 29.33,-6.62 52.04,1.66 75.03,68.93 32.81,101.41 -12.32,9.48 -38.15,17.67 -55.1,7.76 6.41,-8.66 9.22,-8.64 14.8,-21.75 11.01,-25.89 5.21,-50.19 -12.11,-70.9 -1.92,-2.29 -2.25,-2.62 -4.57,-4.47 -2.95,-2.35 -3.84,-2.12 -5.16,-5.42zm-97.62 84.6c14.68,29.43 49.15,42.84 79.9,32.8 17.71,-5.78 4.13,-6.66 23.23,-0.02 31.87,11.08 68.09,-4.19 84.24,-34.01 10.49,-19.37 11.22,-38.41 3.5,-59.06 -14.02,-37.51 -60.31,-56.42 -96.88,-37.93 -7.86,3.97 -9.36,7.28 -14.18,5.86 -18.38,-5.42 -34.83,-4.71 -51.91,4.21 -32.45,16.96 -43.75,56.36 -27.9,88.15z"/>
  <path class="fil0" d="M108.15 14.54c8.14,10.71 9.33,-2.86 15.42,-4.67 5.05,-1.51 7.92,1.32 8.35,5.27 0.84,7.73 -17.87,22.07 -18.73,22.52 -3.66,-2.39 -6.99,-6.61 -10.07,-9.93 -19.2,-20.7 -0.83,-20.89 5.03,-13.18zm14.75 -14.11c-1.46,0.89 -3.55,1.52 -4.71,2.27 -2.36,1.54 -1.69,1.83 -4.1,3.3 -8.5,-4.81 -6.35,-5.57 -16.29,-5.57l-9.1 5.61c-7.82,-5.73 -13.75,-10.03 -22.6,-0.11 -2.45,2.75 -3.88,5.63 -4.13,9.89 -0.6,10.26 15.75,24.84 23.47,31.43 7.03,6 10.69,-4.03 15.96,-7.13 3.59,1.9 6.54,6.03 10.42,9.32 8.21,-1.01 32.77,-25.25 28.4,-37.92 -2.84,-8.23 -9.32,-11.09 -17.31,-11.09z"/>
 </g>
</svg>
