<?xml version="1.0" encoding="UTF-8"?>
<!DOCTYPE svg PUBLIC "-//W3C//DTD SVG 1.1//EN" "http://www.w3.org/Graphics/SVG/1.1/DTD/svg11.dtd">
<!-- Creator: CorelDRAW 2021 (64-Bit) -->
<svg xmlns="http://www.w3.org/2000/svg" xml:space="preserve" width="79.0312mm" height="79.2264mm" version="1.1" style="shape-rendering:geometricPrecision; text-rendering:geometricPrecision; image-rendering:optimizeQuality; fill-rule:evenodd; clip-rule:evenodd"
viewBox="0 0 221.56 222.11"
 xmlns:xlink="http://www.w3.org/1999/xlink"
 xmlns:xodm="http://www.corel.com/coreldraw/odm/2003">
 <defs>
  <style type="text/css">
   <![CDATA[
    .fil0 {fill:#D5B960}
   ]]>
  </style>
 </defs>
 <g id="Layer_x0020_1">
  <metadata id="CorelCorpID_0Corel-Layer"/>
  <path class="fil0" d="M100.7 100.77c13.91,2.78 40.4,38.61 23.42,73.5 -3.8,7.81 -9.83,16.83 -16.49,20.13 -28.43,-18.46 -35.72,-64.68 -6.92,-93.63zm-6.9 102.57c-41.08,13.68 -74.62,-10.87 -79.19,-47.82 -4.69,-37.89 31.78,-71.13 70.62,-61.46 -1.02,2.71 -8.12,10.03 -13.49,23.85 -9.75,25.12 -4.5,54.92 12.26,75.27 3.44,4.18 6.73,6.43 9.79,10.15zm20.42 -113.19c11.7,-3.4 16.01,-7.73 31.99,-7.22 56.75,1.81 81.83,75.18 35.79,110.6 -13.43,10.34 -41.61,19.27 -60.1,8.46 6.99,-9.44 10.06,-9.42 16.14,-23.72 12,-28.23 5.68,-54.75 -13.21,-77.33 -2.09,-2.5 -2.45,-2.86 -4.99,-4.88 -3.22,-2.56 -4.19,-2.31 -5.63,-5.91zm-106.47 92.27c16.01,32.1 53.61,46.72 87.14,35.78 19.31,-6.3 4.5,-7.27 25.34,-0.03 34.76,12.08 74.26,-4.56 91.88,-37.09 11.44,-21.13 12.24,-41.89 3.82,-64.42 -15.3,-40.91 -65.78,-61.53 -105.66,-41.37 -8.57,4.33 -10.21,7.94 -15.47,6.39 -20.04,-5.91 -37.99,-5.14 -56.61,4.59 -35.4,18.49 -47.72,61.47 -30.43,96.14z"/>
  <path class="fil0" d="M117.96 15.86c8.88,11.68 10.18,-3.12 16.81,-5.1 5.51,-1.64 8.64,1.44 9.11,5.74 0.92,8.43 -19.49,24.08 -20.43,24.56 -3.99,-2.61 -7.63,-7.21 -10.98,-10.83 -20.94,-22.58 -0.9,-22.78 5.49,-14.38zm16.08 -15.39c-1.59,0.97 -3.87,1.66 -5.14,2.48 -2.58,1.68 -1.84,2 -4.47,3.6 -9.28,-5.24 -6.93,-6.08 -17.77,-6.08l-9.92 6.12c-8.52,-6.25 -15,-10.94 -24.65,-0.11 -2.68,3 -4.23,6.14 -4.5,10.79 -0.65,11.19 17.18,27.09 25.6,34.27 7.67,6.54 11.65,-4.4 17.41,-7.77 3.92,2.08 7.13,6.58 11.36,10.17 8.96,-1.1 35.74,-27.54 30.97,-41.36 -3.1,-8.98 -10.16,-12.1 -18.88,-12.1z"/>
 </g>
</svg>
